<?xml version="1.0" encoding="utf-8"?>
<!-- Generator: Adobe Illustrator 19.0.0, SVG Export Plug-In . SVG Version: 6.00 Build 0)  -->
<svg version="1.1" xmlns="http://www.w3.org/2000/svg" xmlns:xlink="http://www.w3.org/1999/xlink" x="0px" y="0px"
	 viewBox="0 0 1024 768" style="enable-background:new 0 0 1024 768;" xml:space="preserve">
<style type="text/css">
	.st0{fill:#8CC63F;}
	.st1{fill:#7AC943;}
	.st2{fill:#FFFFFF;}
	.st3{fill:#00FF00;}
	.st4{font-family:'NirmalaUI-Bold';}
	.st5{font-size:18px;}
	.st6{font-size:12px;}
	.st7{fill:#333333;}
	.st8{font-family:'NirmalaUI-Semilight';}
	.st9{fill:none;stroke:#00FF00;stroke-width:7;stroke-miterlimit:10;}
	.st10{fill:#FFFFFF;stroke:#00FF00;stroke-width:0.5;stroke-miterlimit:10;}
</style>
<g id="Elementos">
	<g id="XMLID_8_">
		<path id="XMLID_36_" class="st0" d="M324.2,264.3c-0.3,0.4-0.9,0.5-1.4,0.1l-7.7-6.7c-0.4-0.4-0.5-1-0.1-1.4l9.9-11.4
			c0.4-0.4,1-0.5,1.5-0.3l7.9,4.5c0.5,0.3,0.6,0.9,0.3,1.3L324.2,264.3z"/>
	</g>
	<g id="XMLID_5_">
		<path id="XMLID_37_" class="st1" d="M215.1,291.4c-0.5-1-1.7-1.4-2.7-1l-15,7c-1,0.5-1.4,1.7-1,2.7l4.5,9.6c0.5,1,1.7,1.4,2.7,1
			l15-7c1-0.5,1.4-1.7,1-2.7L215.1,291.4z"/>
	</g>
	<circle id="XMLID_3_" class="st2" cx="981.4" cy="53.3" r="1"/>
	<g id="XMLID_6_">
		<path id="XMLID_31_" class="st3" d="M997.4,58.8c0,1.1-0.9,2-2,2h-11c-1.1,0-2-0.9-2-2v-11c0-1.1,0.9-2,2-2h11c1.1,0,2,0.9,2,2
			V58.8z"/>
	</g>
	<text id="XMLID_7_" transform="matrix(1 0 0 1 984.6663 59.7502)" class="st2 st4 st5">1</text>
	<text id="XMLID_11_" transform="matrix(1 0 0 1 76.5417 339.061)" class="st4 st6">Parque UIS</text>
	<text id="XMLID_13_" transform="matrix(1 0 0 1 248.9583 247.792)" class="st7 st8 st6">Parque Turbay</text>
	<text id="XMLID_21_" transform="matrix(1 0 0 1 587.9583 171.6034)" class="st7 st8 st6">Provenza</text>
	<text id="XMLID_22_" transform="matrix(1 0 0 1 682.9586 154.6869)" class="st7 st8 st6">Payador</text>
	<text id="XMLID_25_" transform="matrix(1 0 0 1 738.9585 176.0615)" class="st7 st8 st6">Hormigueros</text>
	<text id="XMLID_28_" transform="matrix(1 0 0 1 924.1249 127.561)" class="st7 st8 st6">Cañaveral</text>
	<text id="XMLID_30_" transform="matrix(1 0 0 1 813.9996 160.6862)" class="st7 st8 st6">Molinos</text>
	<text id="XMLID_12_" transform="matrix(1 0 0 1 939.7499 44.8333)" class="st7 st8 st6">Lagos</text>
</g>
<g id="r1">
	<path id="XMLID_1_" class="st9" d="M145.3,303.8l2,1c1.2,0.6,2.5,0.8,3.8,0.6l21.7-3.5c1.7-0.2,3.4,0.2,4.7,1.3l14.7,12
		c1.9,1.5,4.4,1.8,6.6,0.7l19-9.6c2.8-1.4,4.1-4.8,2.8-7.8l-3.5-8.3c-0.4-1-0.7-2-0.7-3.1l-0.1-2.2"/>
	<g id="XMLID_42_">
		<path id="XMLID_19_" class="st9" d="M71.4,338.1l-2.6-22.1c-0.1-1.3,0.9-2.4,2.1-2.4H97l22.1-3.4l24.5-3.7c1.2-0.2,2-1.4,1.8-2.6
			l-5.1-23.4c-0.2-0.9,0.4-1.8,1.3-2l16.5-3.2c1-0.2,1.6-1.1,1.4-2.1l-5.7-26.9c-0.2-0.8,0.2-1.6,0.9-1.9l27.6-14.5
			c0.8-0.4,1.8-0.1,2.2,0.7l28.1,53.9c0.5,0.9,1.6,1.3,2.6,1l66.4-26l40.9-5.3l108.9-16.2c0.5-0.1,0.9-0.3,1.2-0.8l20.8-30.8
			c2.7-3.9,7.8-5.4,12.1-3.4l24,11.5c1.8,0.9,3.9,1.1,5.9,0.6l137.1-35.9l20-8.1l30.1-9.4l38.9-1.6l82,4l50,3l18.8-2
			c1.6-0.2,10-5.1,11.1-6.2l36.1-38.8l58-77"/>
	</g>
	<circle id="XMLID_41_" class="st10" cx="71.4" cy="338.1" r="3.2"/>
	<circle id="XMLID_40_" class="st10" cx="322.4" cy="254.1" r="3.2"/>
	<circle id="XMLID_39_" class="st10" cx="632.4" cy="179.1" r="3.2"/>
	<circle id="XMLID_38_" class="st10" cx="721.4" cy="160.1" r="3.2"/>
	<circle id="XMLID_35_" class="st10" cx="803.4" cy="164.1" r="3.2"/>
	<circle id="XMLID_34_" class="st10" cx="853.4" cy="167.1" r="3.2"/>
	<circle id="XMLID_33_" class="st10" cx="919.4" cy="120.1" r="3.2"/>
	<circle id="XMLID_32_" class="st10" cx="977.4" cy="43.1" r="3.2"/>
</g>
</svg>
