<?xml version="1.0" encoding="utf-8"?>
<!-- Generator: Adobe Illustrator 19.0.0, SVG Export Plug-In . SVG Version: 6.00 Build 0)  -->
<svg version="1.1" id="map" xmlns="http://www.w3.org/2000/svg" xmlns:xlink="http://www.w3.org/1999/xlink" x="0px" y="0px"
	 viewBox="0 0 1024 768" style="enable-background:new 0 0 1024 768;" xml:space="preserve">
<style type="text/css">
	.st0{fill:#8CC63F;}
	.st1{fill:#FFFFFF;}
	.st2{fill:#00FF00;}
	.st3{font-family:'NirmalaUI-Bold';}
	.st4{font-size:11px;}
	.st5{font-size:7px;}
	.st6{fill:#333333;}
	.st7{font-family:'NirmalaUI-Semilight';}
	.st8{fill:#7AC943;}
	.st9{fill:none;stroke:#00FF00;stroke-width:3;stroke-miterlimit:10;}
	.st10{fill:#FFFFFF;stroke:#00FF00;stroke-width:0.25;stroke-miterlimit:10;}
</style>
<g id="Elementos">
	<g id="XMLID_8_">
		<path id="XMLID_27_" class="st0" d="M331.8,233.8c-0.3,0.5-0.9,0.7-1.3,0.4l-3.7-1.9c-0.5-0.3-0.7-0.9-0.4-1.3l3.4-6.5
			c0.3-0.5,0.9-0.7,1.3-0.4l3.7,1.9c0.5,0.3,0.7,0.9,0.4,1.3L331.8,233.8z"/>
	</g>
	<circle id="XMLID_3_" class="st1" cx="986.4" cy="29.3" r="1"/>
	<g id="XMLID_6_">
		<path id="XMLID_17_" class="st2" d="M995,30.8c0,1.1-0.9,2-2,2h-6c-1.1,0-2-0.9-2-2v-6c0-1.1,0.9-2,2-2h6c1.1,0,2,0.9,2,2V30.8z"
			/>
	</g>
	<text id="XMLID_7_" transform="matrix(1 0 0 1 986.9997 31.6668)" class="st1 st3 st4">1</text>
	<text id="XMLID_11_" transform="matrix(1 0 0 1 37.375 317.792)" class="st3 st5">Parque UIS</text>
	<text id="XMLID_13_" transform="matrix(1 0 0 1 283.9583 226.292)" class="st6 st7 st5">Parque Turbay</text>
	<text id="XMLID_21_" transform="matrix(1 0 0 1 607.4583 153.6034)" class="st6 st7 st5">Provenza</text>
	<text id="XMLID_22_" transform="matrix(1 0 0 1 697.4583 133.3534)" class="st6 st7 st5">Payador</text>
	<text id="XMLID_25_" transform="matrix(1 0 0 1 767.9583 136.0612)" class="st6 st7 st5">Hormigueros</text>
	<text id="XMLID_28_" transform="matrix(1 0 0 1 891.6249 96.061)" class="st6 st7 st5">Cañaveral</text>
	<text id="XMLID_30_" transform="matrix(1 0 0 1 832.9996 138.6862)" class="st6 st7 st5">Molinos</text>
	<text id="XMLID_12_" transform="matrix(1 0 0 1 960.7499 20.436)" class="st6 st7 st5">Lagos</text>
	<g id="XMLID_5_">
		<path id="XMLID_43_" class="st8" d="M221.2,266.9c-0.5-1-1.7-1.4-2.7-1l-13.7,6.4c-1,0.5-1.4,1.7-1,2.7l4,8.6c0.5,1,1.7,1.4,2.7,1
			l13.7-6.4c1-0.5,1.4-1.7,1-2.7L221.2,266.9z"/>
	</g>
</g>
<g id="r1">
	<g id="XMLID_9_">
		<g id="XMLID_14_">
			<path id="XMLID_18_" class="st9" d="M76.4,314.1l-2.6-22.1c-0.1-1.3,0.9-2.4,2.1-2.4H102l22.1-3.4l24.5-3.7
				c1.2-0.2,2-1.4,1.8-2.6l-5.1-23.4c-0.2-0.9,0.4-1.8,1.3-2l16.5-3.2c1-0.2,1.6-1.1,1.4-2.1l-5.7-26.9c-0.2-0.8,0.2-1.6,0.9-1.9
				l27.6-14.5c0.8-0.4,1.8-0.1,2.2,0.7l28.1,53.9c0.5,0.9,1.6,1.3,2.6,1l66.4-26l40.9-5.3l108.9-16.2c0.5-0.1,0.9-0.3,1.2-0.8
				l20.8-30.8c2.7-3.9,7.8-5.4,12.1-3.4l24,11.5c1.8,0.9,3.9,1.1,5.9,0.6l137.1-35.9l20-8.1l30.1-9.4l38.9-1.6l82,4l50,3l18.8-2
				c1.6-0.2,10-5.1,11.1-6.2l36.1-38.8l58-77"/>
		</g>
		<path id="XMLID_10_" class="st9" d="M220.1,261.3l0,0.8c0,0.6,0.2,1.1,0.4,1.7l5.6,11.4c0.8,1.8-0.1,3.9-1.9,4.7l-19.3,8.3
			c-0.9,0.4-2,0.4-2.9-0.1l-17.9-9.6c-0.7-0.4-1.6-0.6-2.4-0.5l-27.3,3.9c-1,0.1-1.9-0.2-2.6-0.8l-1.4-1.3"/>
	</g>
	<circle id="XMLID_40_" class="st10" cx="76.4" cy="314.1" r="1.4"/>
	<circle id="XMLID_39_" class="st10" cx="327.4" cy="230.1" r="1.4"/>
	<circle id="XMLID_31_" class="st10" cx="637.4" cy="155.1" r="1.4"/>
	<circle id="XMLID_29_" class="st10" cx="726.4" cy="136.1" r="1.4"/>
	<circle id="XMLID_26_" class="st10" cx="808.4" cy="140.1" r="1.4"/>
	<circle id="XMLID_24_" class="st10" cx="858.4" cy="143.1" r="1.4"/>
	<circle id="XMLID_20_" class="st10" cx="924.4" cy="96.1" r="1.4"/>
	<circle id="XMLID_19_" class="st10" cx="982.4" cy="19.1" r="1.4"/>
</g>
</svg>
