<?xml version="1.0" standalone="no"?>
<!DOCTYPE svg PUBLIC "-//W3C//DTD SVG 20010904//EN"
 "http://www.w3.org/TR/2001/REC-SVG-20010904/DTD/svg10.dtd">
<svg version="1.0" xmlns="http://www.w3.org/2000/svg"
 width="34.000000pt" height="36.000000pt" viewBox="0 0 34.000000 36.000000"
 preserveAspectRatio="xMidYMid meet">
<metadata>
Created by potrace 1.10, written by Peter Selinger 2001-2011
</metadata>
<g transform="translate(0.000000,36.000000) scale(0.100000,-0.100000)"
fill="#53ff00" stroke="none">
<path d="M98 318 c-16 -5 -28 -14 -28 -19 0 -5 -9 -9 -20 -9 -16 0 -20 -7 -20
-30 0 -38 17 -39 23 -2 2 15 5 -1 6 -35 l1 -63 110 0 110 0 1 63 c1 34 4 50 6
35 6 -37 23 -36 23 2 0 23 -4 30 -20 30 -11 0 -20 4 -20 9 0 26 -118 39 -172
19z m66 -85 l-2 -58 -33 -3 c-34 -4 -34 -4 -15 17 15 16 21 18 28 9 4 -8 7 3
6 27 0 22 -3 30 -5 19 -2 -12 -17 -34 -34 -49 l-29 -29 0 62 0 62 43 0 42 0
-1 -57z m101 -2 c1 -51 -2 -58 -15 -51 -23 12 -47 42 -53 65 -2 11 -5 2 -5
-20 0 -22 2 -34 5 -27 2 6 9 10 14 6 16 -10 10 -24 -11 -24 -18 0 -20 7 -20
55 l0 55 43 0 42 0 0 -59z"/>
<path d="M65 118 c3 -16 8 -41 11 -58 4 -21 11 -30 25 -30 10 0 19 7 19 15 0
11 12 15 50 15 38 0 50 -4 50 -15 0 -8 9 -15 20 -15 14 0 21 9 25 38 3 20 8
46 10 57 4 19 -1 20 -106 20 l-109 0 5 -27z m65 -18 c0 -5 -9 -10 -20 -10 -11
0 -20 5 -20 10 0 6 9 10 20 10 11 0 20 -4 20 -10z m50 0 c0 -5 -4 -10 -10 -10
-5 0 -10 5 -10 10 0 6 5 10 10 10 6 0 10 -4 10 -10z m75 0 c-3 -5 -15 -10 -26
-10 -10 0 -19 5 -19 10 0 6 12 10 26 10 14 0 23 -4 19 -10z"/>
</g>
</svg>
