<?xml version="1.0" encoding="utf-8"?>
<!-- Generator: Adobe Illustrator 19.0.0, SVG Export Plug-In . SVG Version: 6.00 Build 0)  -->
<svg version="1.1" id="Capa_1" height="50" width="50" xmlns="http://www.w3.org/2000/svg" xmlns:xlink="http://www.w3.org/1999/xlink" x="0px" y="0px"
	 viewBox="-63 -22.7 512 525.3" style="enable-background:new -63 -22.7 512 525.3;" xml:space="preserve">
<style type="text/css">
	.st0{fill:#00E677;stroke:#00AD59;stroke-width:10;stroke-miterlimit:10;}
	.st1{fill:#FFFFFF;stroke:#00AD59;stroke-width:10;stroke-miterlimit:10;}
	.st2{fill:#00AD59;}
</style>
<g>
	<path class="st0" d="M193-16C87-16,1,70,1,176c0,43.2,14.2,83,38.3,115.1L193,496l153.7-204.9C370.8,259,385,219.2,385,176
		C385,70,299-16,193-16z M193,304c-70.7,0-128-57.3-128-128c0-70.7,57.3-128,128-128c70.7,0,128,57.3,128,128
		C321,246.7,263.7,304,193,304z"/>
</g>
<circle class="st1" cx="193" cy="176" r="140"/>
<g>
	<path class="st2" d="M242.4,198.2c-13.4,1-31.3,1.5-50.5,1.5s-37.1-0.5-50.5-1.5c-10.9-0.8-17.2-1.7-21-2.9
		c0.4,16.4,1.1,32.8,2.2,49.5c0,3,1.1,5.9,3.3,8.2c0.8,0.8,1.6,1.1,2.5,1.3v16.1c0,3.4,2.7,6.1,6,6.1h17c3.3,0,6-2.7,6-6.1v-16.1
		h68.3v16.1c0,3.4,2.7,6.1,6,6.1h17c3.3,0,6-2.7,6-6.1v-16.1c0.9-0.2,1.7-0.6,2.5-1.3c2.2-2.3,3.3-5.2,3.3-8.2
		c1.1-16.7,1.8-33.1,2.2-49.4C259.3,196.4,253,197.4,242.4,198.2z M165.1,231.5c-0.1,3.4-2.6,5.9-5.7,5.7c-6.6-0.3-9.6-0.6-16.5-1.1
		c-3.2-0.3-6.5-2.4-6.9-5.9c-0.2-1.4-0.3-2.2-0.4-3.7c-0.3-3.7,2.6-6.3,6-6.1c7.1,0.5,10.6,0.7,17.7,1c3.3,0.1,5.9,3,5.9,6.5
		C165.1,229.4,165.1,230.1,165.1,231.5z M248.1,229.6c-0.2,3.4-3.6,6.3-6.9,6.6c-6.9,0.5-10.1,0.7-16.9,1.1
		c-3.2,0.2-5.8-2.5-5.9-5.8c0-1.4-0.1-2.1-0.1-3.5c-0.1-3.4,2.5-6.2,5.8-6.3c7.1-0.3,10.7-0.5,17.7-1c3.3-0.3,6.3,2.3,6.3,5.6
		C248.2,227.5,248.2,228.2,248.1,229.6z"/>
	<path class="st2" d="M281.7,98.4h-4.5c-3.2,0-5.7,2.5-6,5.6h-9.8c-0.2-3.5-0.4-7-0.6-10.5v-1c-26.1-26.1-112.2-26.1-138.3,0v1
		c-0.3,3.6-0.4,7-0.6,10.5h-9.8c-0.3-3.1-2.8-5.6-6-5.6h-4.5c-3.3,0-6,2.7-6,6.1v32.2c0,3.4,2.7,6.1,6,6.1h4.5c3.3,0,6-2.7,6-6.1
		v-28.2h9.5c-1.4,26.6-1.9,52.7-1.4,78.9c0.4,0.3,0.8,0.6,0.9,1c11.5,5.8,129.8,5.8,141.3,0c0.2-0.3,0.4-0.6,0.8-0.8
		c0.4-26.3-0.1-52.4-1.4-79.1h9.5v28.2c0,3.4,2.7,6.1,6,6.1h4.5c3.3,0,6-2.7,6-6.1v-32.2C287.8,101.2,285,98.4,281.7,98.4z
		 M188.9,178.5l-44.7,0.8l27.7-30.5v16.5c0,1.3,1,2.3,2.3,2.3s2.3-1,2.3-2.3v-44.6c0-1.3-1-2.3-2.3-2.3s-2.3,1-2.3,2.3v24.7
		l-34.8,34l-9.4,0.1v-74.9c0-3.4,2.7-6.1,6-6.1h55.3V178.5z M257,179.8l-5.4-1.1c-3-2.9-7.5-4.9-12.6-6.2l-27.7-27.1v-24.7
		c0-1.3-1-2.3-2.3-2.3s-2.3,1-2.3,2.3v44.6c0,1.3,1,2.3,2.3,2.3s2.3-1,2.3-2.3v-16.5l20.2,22.3c-12.3-1.3-26,1-32.8,7.3l-3.1,0.1
		V98.4H251c3.3,0,6,2.7,6,6.1V179.8z"/>
</g>
</svg>
