<?xml version="1.0" encoding="utf-8"?>
<!-- Generator: Adobe Illustrator 19.0.0, SVG Export Plug-In . SVG Version: 6.00 Build 0)  -->
<svg version="1.1" id="Capa_1" height="20" width="20" xmlns="http://www.w3.org/2000/svg" xmlns:xlink="http://www.w3.org/1999/xlink" x="0px" y="0px"
	 viewBox="-62.4 -22.7 429.9 430.7" style="enable-background:new -62.4 -22.7 429.9 430.7;" xml:space="preserve">
<style type="text/css">
	.st0{fill:#EC0000;stroke:#0052B4;stroke-width:10;stroke-miterlimit:10;}
	.st1{fill:#FFFFFF;}
</style>
<circle class="st0" cx="152.7" cy="193.6" r="210"/>
<g>
	<g>
		<g>
			<g>
				<path class="st1" d="M43.7,202.3c-12.5,0-22.7,10.9-22.7,24.2c0,13.4,10.2,24.3,22.7,24.3c12.4,0,22.5-10.9,22.5-24.3
					C66.3,213.2,56.1,202.3,43.7,202.3z M43.7,241.6c-7.8,0-14.1-6.8-14.1-15.1c0-8.2,6.3-14.9,14.1-14.9c7.6,0,13.9,6.7,13.9,14.9
					C57.6,234.8,51.4,241.6,43.7,241.6z"/>
				<path class="st1" d="M43.7,217.5c-4.7,0-8.5,4.1-8.5,9.1c0,5.1,3.8,9.1,8.5,9.1c4.7,0,8.4-4,8.4-9.1
					C52.1,221.6,48.3,217.5,43.7,217.5z"/>
				<path class="st1" d="M301.6,134.2H-6.5c-1,0-1.7,0.8-1.7,1.8v90.7c0,1,0.8,1.8,1.7,1.8h20.1c1,0,1.7-0.9,1.7-1.9l0-0.2
					c0-16.1,12.6-29.2,28.4-29.2c15.6,0,28.2,13.1,28.2,29.2l0,0.2c0,1,0.8,1.9,1.7,1.9h128.1c1,0,1.8-0.9,1.7-1.9l0-0.1
					c0-16.1,12.7-29.2,28.4-29.2c15.5,0,28.2,13,28.3,29.1c0,0.1,0,0.1,0,0.2l0,0c-0.1,1.1,0.7,2,1.7,2h50.8c1,0,1.7-0.8,1.7-1.8
					v-40.4c0-0.1,0-0.3,0-0.4l-11-50.3C303.1,134.8,302.4,134.2,301.6,134.2z M26.6,142.2v36c0,1-0.8,1.8-1.7,1.8H2.2
					c-1,0-1.7-0.8-1.7-1.9L0.5,144c0-1,0.8-1.8,1.7-1.8L26.6,142.2L26.6,142.2z M80.1,180.1H34.5c-1,0-1.7-0.8-1.7-1.8V144
					c0-1,0.8-1.8,1.7-1.8l43.8,0.1c1,0,1.7,0.8,1.7,1.8L80.1,180.1L80.1,180.1z M131.9,180.1H88.1c-1,0-1.7-0.8-1.7-1.8v-34.1
					c0-1,0.8-1.8,1.7-1.8l43.9,0.1c1,0,1.7,0.8,1.7,1.8v34C133.7,179.2,132.9,180.1,131.9,180.1z M185.5,220.9h-43.8
					c-1,0-1.7-0.8-1.7-1.8v-74.9c0-1,0.8-1.9,1.7-1.8l43.8,0.2c0.9,0,1.7,0.8,1.7,1.8v74.7C187.2,220.1,186.4,220.9,185.5,220.9z
					 M239,180.1h-43.9c-1,0-1.7-0.8-1.7-1.8v-33.9c0-1,0.8-1.9,1.7-1.8l43.9,0.1c1,0,1.7,0.8,1.7,1.8v33.8
					C240.7,179.2,240,180.1,239,180.1z M246.9,180L246.9,180v-35.7c0-1,0.8-1.9,1.7-1.8l48.5,0.1c0.8,0,1.5,0.6,1.7,1.4l7.1,33.8
					c0.2,1.2-0.6,2.3-1.7,2.3L246.9,180z"/>
				<rect x="159.1" y="147.9" class="st1" width="7.5" height="67.6"/>
				<path class="st1" d="M232.3,204.4c-12.5,0-22.7,10.9-22.7,24.2c0,13.4,10.2,24.3,22.7,24.3c12.4,0,22.5-10.9,22.5-24.3
					C254.8,215.3,244.7,204.4,232.3,204.4z M232.3,243.6c-7.7,0-14.1-6.8-14.1-15c0-8.2,6.3-14.9,14.1-14.9c7.7,0,14,6.7,14,14.9
					C246.2,236.9,240,243.6,232.3,243.6z"/>
				<path class="st1" d="M232.3,219.6c-4.8,0-8.5,4-8.5,9.1s3.8,9.1,8.5,9.1c4.6,0,8.4-4,8.4-9.1
					C240.7,223.6,236.9,219.6,232.3,219.6z"/>
			</g>
		</g>
	</g>
</g>
</svg>
