<?xml version="1.0" encoding="utf-8"?>
<!-- Generator: Adobe Illustrator 19.0.0, SVG Export Plug-In . SVG Version: 6.00 Build 0)  -->
<svg version="1.1" id="Capa_1" xmlns="http://www.w3.org/2000/svg" xmlns:xlink="http://www.w3.org/1999/xlink" x="0px" y="0px"
	 viewBox="-63 -22.7 512 525.3" style="enable-background:new -63 -22.7 512 525.3;" xml:space="preserve">
<style type="text/css">
	.st0{fill:#FF5722;stroke:#BF411A;stroke-width:10;stroke-miterlimit:10;}
	.st1{fill:#FFFFFF;stroke:#BF411A;stroke-width:10;stroke-miterlimit:10;}
	.st2{fill:#BF411A;}
</style>
<g>
	<path class="st0" d="M193-16C87-16,1,70,1,176c0,43.2,14.2,83,38.3,115.1L193,496l153.7-204.9C370.8,259,385,219.2,385,176
		C385,70,299-16,193-16z M193,304c-70.7,0-128-57.3-128-128c0-70.7,57.3-128,128-128c70.7,0,128,57.3,128,128
		C321,246.7,263.7,304,193,304z"/>
</g>
<circle class="st1" cx="193" cy="176" r="140"/>
<path id="rect4665" class="st2" d="M192.9,72.9c-34.1,0-63,1.8-67.7,4.2c-0.1,0-0.2,0.1-0.3,0.1c0,0-0.1,0-0.1,0.1
	c-3.7,1.9-6.4,9.8-6.4,19v19.5h-4h-8c-1.1,0-2,1.1-2,2.4v4.9v29.2c0,1.3,0.9,2.4,2,2.4h8c1.1,0,2-1.1,2-2.4v-26.8h2v85.2h26.2
	c1.1,0,2,1.1,2,2.4v9.7c0,1.3-0.9,2.4-2,2.4h-26.2v17c0,3.5,0.8,6.7,2,8.4v20.8c0,2.7,1.8,4.9,4,4.9h12.1c2.2,0,4-2.2,4-4.9V257
	h104.6v14.6c0,2.7,1.8,4.9,4,4.9h12.1c2.2,0,4-2.2,4-4.9v-20.8c1.2-1.7,2-4.9,2-8.4v-17h-26.2c-1.1,0-2-1.1-2-2.4v-9.7
	c0-1.3,0.9-2.4,2-2.4h26.2v-85.2h2v26.8c0,1.3,0.9,2.4,2,2.4h8c1.1,0,2-1.1,2-2.4v-29.2v-4.9c0-1.3-0.9-2.4-2-2.4h-8h-4V96.3
	c0-9.5-2.8-17.6-6.7-19.2C256.3,74.7,227.3,72.9,192.9,72.9z M130.6,81.7h124.7c2.2,0,4,5.5,4,12.2l0,0v9.7c0,1.3-0.9,2.4-2,2.4
	H128.6c-1.1,0-2-1.1-2-2.4v-9.7C126.6,87.2,128.4,81.7,130.6,81.7z M126.6,110.9h132.8c2.2,0,4,2.2,4,4.9v73.1c0,2.7-1.8,4.9-4,4.9
	h-15.9l-3.5-2.1l5.7,0c1.1,0,2-1,2.1-2.4s-0.9-2.5-2-2.5c0,0,0,0-0.1,0l-61.3-0.5c-1.1,0-2,1-2.1,2.4s0.9,2.5,2,2.5c0,0,0,0,0.1,0
	l46.5,0.4l9.2,5.5c-0.2,0-0.5,0.1-0.7,0.1h-92.5c-0.5,0-1-0.1-1.5-0.4l11.4-8.6l49.8-3.9c1.1-0.1,2-1.2,1.9-2.6
	c-0.1-1.3-0.9-2.3-2-2.3c0,0-0.1,0-0.1,0l-63.8,5c-1.1,0.1-2,1.2-1.9,2.5c0.1,1.3,1,2.4,2.1,2.3c0,0,0,0,0.1,0l5.4-0.4l-6.5,4.9h-15
	c-2.2,0-4-2.2-4-4.9v-73.1C122.5,113.1,124.3,110.9,126.6,110.9L126.6,110.9z"/>
</svg>
