<?xml version="1.0" ?><svg height="48" id="svg2" version="1.1" width="48" xmlns="http://www.w3.org/2000/svg" xmlns:cc="http://creativecommons.org/ns#" xmlns:dc="http://purl.org/dc/elements/1.1/" xmlns:inkscape="http://www.inkscape.org/namespaces/inkscape" xmlns:rdf="http://www.w3.org/1999/02/22-rdf-syntax-ns#" xmlns:sodipodi="http://sodipodi.sourceforge.net/DTD/sodipodi-0.dtd" xmlns:svg="http://www.w3.org/2000/svg"><defs id="defs6"/><path d="m 256,46.950197 a 170,10 0 0 0 -168.20898,8.634765 20,40 0 0 0 -0.65625,0.25586 170,10 0 0 0 -0.3086,0.138672 A 20,40 0 0 0 71,95.049803 l 0,39.999997 -10,0 -20,0 c -2.76131,2.8e-4 -4.99972,2.23869 -5,5 l 0,10 0,60 c 2.8e-4,2.76131 2.23869,4.99972 5,5 l 20,0 c 2.76131,-2.8e-4 4.99972,-2.23869 5,-5 l 0,-55 5,0 0,175 65,0 c 2.76131,2.8e-4 4.99972,2.23869 5,5 l 0,20 c -2.8e-4,2.76131 -2.23869,4.99972 -5,5 l -65,0 0,35 a 10,20 0 0 0 5,17.29883 l 0,42.70117 c 5.5e-4,5.52262 4.47738,9.99945 10,10 l 30,0 c 5.52262,-5.5e-4 9.99945,-4.47738 10,-10 l 0,-30 260,0 0,30 c 5.5e-4,5.52262 4.47738,9.99945 10,10 l 30,0 c 5.52262,-5.5e-4 9.99945,-4.47738 10,-10 l 0,-42.70898 a 10,20 0 0 0 5,-17.29102 l 0,-35 -65,0 c -2.76131,-2.8e-4 -4.99972,-2.23869 -5,-5 l 0,-20 c 2.8e-4,-2.76131 2.23869,-4.99972 5,-5 l 65,0 0,-175 5,0 0,55 c 2.8e-4,2.76131 2.23869,4.99972 5,5 l 20,0 c 2.76131,-2.8e-4 4.99972,-2.23869 5,-5 l 0,-60 0,-10 c -2.8e-4,-2.76131 -2.23869,-4.99972 -5,-5 l -20,0 -10,0 0,-39.999997 A 20,40 0 0 0 424.39844,55.672853 170,10 0 0 0 256,46.950197 Z m -155,18.099609 310,0 a 10,25 0 0 1 10,24.999997 l 0,19.999997 c -2.8e-4,2.76131 -2.23869,4.99972 -5,5 l -320,0 c -2.76131,-2.8e-4 -4.99972,-2.23869 -5,-5 l 0,-19.999997 a 10,25 0 0 1 10,-24.999997 z m -10,59.999994 330,0 c 5.52262,5.5e-4 9.99945,4.47738 10,10 l 0,150 c -5.5e-4,5.52262 -4.47738,9.99945 -10,10 l -39.57617,0 -8.77149,-4.36328 14.09571,0.0957 a 5.0005,5.0005 0 1 0 0.0664,-10 l -152.48047,-1.02539 a 5.0005,5.0005 0 1 0 -0.0664,10 l 115.62304,0.77735 22.8379,11.35937 A 10.001,10.001 0 0 1 371,302.0498 l -230,0 a 10.001,10.001 0 0 1 -3.76953,-0.74414 l 28.42773,-17.63477 123.89453,-8.02148 a 5.0005,5.0005 0 0 0 -0.29687,-9.99414 5.0005,5.0005 0 0 0 -0.34766,0.0156 l -158.52929,10.26368 a 5.0005,5.0005 0 1 0 0.64648,9.97851 l 13.45117,-0.87109 -16.13281,10.00781 -37.34375,0 c -5.52262,-5.5e-4 -9.99945,-4.47738 -10,-10 l 0,-150 c 5.5e-4,-5.52262 4.47738,-9.99945 10,-10 z" id="rect4665" style="color:#000000;font-style:normal;font-variant:normal;font-weight:normal;font-stretch:normal;font-size:medium;line-height:normal;font-family:sans-serif;text-indent:0;text-align:start;text-decoration:none;text-decoration-line:none;text-decoration-style:solid;text-decoration-color:#000000;letter-spacing:normal;word-spacing:normal;text-transform:none;direction:ltr;block-progression:tb;writing-mode:lr-tb;baseline-shift:baseline;text-anchor:start;white-space:normal;clip-rule:nonzero;display:inline;overflow:visible;visibility:visible;opacity:1;isolation:auto;mix-blend-mode:normal;color-interpolation:sRGB;color-interpolation-filters:linearRGB;solid-color:#000000;solid-opacity:1;fill:#222222;fill-opacity:1;fill-rule:nonzero;stroke:none;stroke-width:20;stroke-linecap:round;stroke-linejoin:round;stroke-miterlimit:4;stroke-dasharray:none;stroke-dashoffset:0;stroke-opacity:1;color-rendering:auto;image-rendering:auto;shape-rendering:auto;text-rendering:auto;enable-background:accumulate"/></svg>
