<?xml version="1.0" encoding="iso-8859-1"?>
<!-- Generator: Adobe Illustrator 19.1.0, SVG Export Plug-In . SVG Version: 6.00 Build 0)  -->
<svg xmlns="http://www.w3.org/2000/svg" xmlns:xlink="http://www.w3.org/1999/xlink" version="1.1" id="Capa_1" x="0px" y="0px" viewBox="0 0 412.692 412.692" style="enable-background:new 0 0 412.692 412.692;" xml:space="preserve" width="48px" height="48px">
<g>
	<g>
		<g>
			<path d="M103.705,125.498h41.025v31.773h-41.025V125.498z M75.645,157.27h22.686v-31.831l-22.637-0.029     L75.645,157.27z M113.104,187.812c-4.787,0-8.627,3.84-8.627,8.588c0,4.787,3.84,8.608,8.627,8.608     c4.729,0,8.549-3.82,8.549-8.608C121.653,191.652,117.853,187.812,113.104,187.812z M276.256,187.812     c-4.778,0-8.608,3.84-8.608,8.588c0,4.787,3.83,8.608,8.608,8.608c4.719,0,8.568-3.82,8.568-8.608     C284.834,191.652,280.995,187.812,276.256,187.812z M150.114,157.27h41.044v-31.694l-41.044-0.068V157.27z M196.551,191.622     h41.035v-65.87l-41.035-0.186V191.622z M219.306,129.22h13.493v57.116h-13.493V129.22z M202.12,129.22h12.955v57.116H202.12     V129.22z M242.94,157.27h41.044v-31.538l-41.044-0.088V157.27z M289.378,125.742v31.528h51.538l-6.81-31.44L289.378,125.742z      M46.364,0v319.973h100.662l59.324,92.719l59.324-92.719h100.652V0H46.364z M113.153,215.833     c-10.835,0-19.491-8.686-19.491-19.472c0-10.669,8.656-19.364,19.491-19.364c10.649,0,19.335,8.695,19.335,19.364     C132.498,207.137,123.822,215.833,113.153,215.833z M276.286,215.833c-10.786,0-19.404-8.686-19.404-19.472     c0-10.669,8.627-19.364,19.404-19.364c10.708,0,19.364,8.695,19.364,19.364C295.689,207.137,286.994,215.833,276.286,215.833z      M347.832,198.119H300.74l0.088-1.739c0-13.551-10.972-24.533-24.543-24.533c-13.61,0-24.601,10.982-24.601,24.533l0.059,1.739     H137.569l0.068-1.739c0-13.551-10.962-24.533-24.484-24.533c-13.668,0-24.64,10.982-24.64,24.533l0.049,1.739h-20.39v-79.353     h269.803l9.868,43.692L347.832,198.119L347.832,198.119z" fill="#ff5722"/>
		</g>
	</g>
</g>
<g>
</g>
<g>
</g>
<g>
</g>
<g>
</g>
<g>
</g>
<g>
</g>
<g>
</g>
<g>
</g>
<g>
</g>
<g>
</g>
<g>
</g>
<g>
</g>
<g>
</g>
<g>
</g>
<g>
</g>
</svg>
