<?xml version="1.0" standalone="no"?>
<!DOCTYPE svg PUBLIC "-//W3C//DTD SVG 20010904//EN"
 "http://www.w3.org/TR/2001/REC-SVG-20010904/DTD/svg10.dtd">
<svg version="1.0" xmlns="http://www.w3.org/2000/svg"
 width="45.000000pt" height="45.000000pt" viewBox="0 0 45.000000 45.000000"
 preserveAspectRatio="xMidYMid meet">
<metadata>
Created by potrace 1.10, written by Peter Selinger 2001-2011
</metadata>
<g transform="translate(0.000000,45.000000) scale(0.100000,-0.100000)"
fill="#0f00ff" stroke="none">
<path d="M136 440 c-80 -21 -136 -67 -136 -114 0 -28 194 -311 213 -311 14 0
202 236 224 282 24 48 5 86 -62 119 -60 29 -173 40 -239 24z m201 -40 c125
-56 52 -160 -112 -160 -122 0 -196 51 -167 115 28 61 188 87 279 45z m-112
-192 c46 0 92 5 104 11 11 7 21 9 21 5 0 -9 -132 -174 -139 -174 -5 1 -68 89
-116 164 l-19 29 33 -18 c24 -12 58 -17 116 -17z"/>
<path d="M133 393 c-8 -3 -13 -24 -13 -55 0 -27 6 -55 13 -61 13 -13 165 -16
185 -3 19 11 16 112 -4 120 -19 7 -163 7 -181 -1z m146 -9 c21 -5 31 -12 31
-25 0 -17 -9 -19 -85 -19 -77 0 -85 2 -85 19 0 27 69 39 139 25z m-91 -81
c-10 -2 -26 -2 -35 0 -10 3 -2 5 17 5 19 0 27 -2 18 -5z m110 0 c-10 -2 -26
-2 -35 0 -10 3 -2 5 17 5 19 0 27 -2 18 -5z m-55 -20 c-7 -2 -21 -2 -30 0 -10
3 -4 5 12 5 17 0 24 -2 18 -5z"/>
</g>
</svg>
